# xmcd
#
# Track frame offsets:
#  150
#  17321
#  36894
#  58312
#  83360
#  98532
#  114786
#  135956
#  150520
#  166116
#  184430
#  203298
#  220001
#
# Disc length: 3137 seconds
#
# Revision: 0
# Processed by: cddbd v1.4PL0 Copyright (c) Steve Scherf et al.
# Submitted via: AltoMP3_Maker 3.0
#
DISCID=8b0c3f0d
DTITLE=Ray Bonneville - Solid Ground
DYEAR=1900
DGENRE=
TTITLE0=Nothing To Lose
TTITLE1=Blue Guitar
TTITLE2=Dance With Me
TTITLE3=On The Main
TTITLE4=If Your Love Is Strong
TTITLE5=When The Nigh Time Comes
TTITLE6=Love In Danger
TTITLE7=Blonde Of Mine
TTITLE8=Solid Ground
TTITLE9=Excuse Me
TTITLE10=When Will I Learn
TTITLE11=What Else Is New
TTITLE12=Say Those Things
EXTD=
EXTT0=
EXTT1=
EXTT2=
EXTT3=
EXTT4=
EXTT5=
EXTT6=
EXTT7=
EXTT8=
EXTT9=
EXTT10=
EXTT11=
EXTT12=
PLAYORDER=
